<svg width="48" height="48" viewBox="0 0 48 48" fill="none" xmlns="http://www.w3.org/2000/svg">
<path d="M29.5396 11.0765C23.4224 11.0765 11.1689 6.11753 11.1689 0H11.0783C11.0783 4.89619 13.0233 9.59184 16.4854 13.054C19.9474 16.5162 24.6429 18.4613 29.5392 18.4615C32.4769 18.4615 35.2943 19.6285 37.3717 21.7058C39.4491 23.7831 40.6161 26.6006 40.6161 29.5382C40.6168 32.4759 39.4503 35.2939 37.3733 37.3715C35.2964 39.4493 32.4792 40.6168 29.5415 40.6175C26.6036 40.618 23.7859 39.4514 21.7081 37.3745C19.6304 35.2976 18.4628 32.4803 18.4622 29.5426C18.4622 27.1182 17.9846 24.7175 17.0567 22.4777C16.1289 20.2379 14.7689 18.2027 13.0546 16.4884C11.3402 14.7741 9.30495 13.4143 7.06503 12.4866C4.82513 11.5589 2.42442 11.0815 0 11.0816V11.1714C6.11638 11.1714 11.0754 23.4196 11.0776 29.538H11.0765C11.0765 33.1895 12.1591 36.7588 14.1877 39.7948C16.2162 42.8308 19.0994 45.1971 22.4728 46.5944C25.8462 47.992 29.5581 48.3577 33.1394 47.6453C36.7205 46.9332 40.0101 45.175 42.5922 42.5933C45.174 40.0115 46.9325 36.7221 47.6451 33.1408C48.3577 29.5597 47.9922 25.8478 46.5951 22.4743C45.198 19.1008 42.832 16.2173 39.7962 14.1886C36.7602 12.1598 33.1909 11.0768 29.5396 11.0765Z" fill="url(#paint0_linear_79_387)"/>
<defs>
<linearGradient id="paint0_linear_79_387" x1="38.256" y1="41.52" x2="10.368" y2="3.216" gradientUnits="userSpaceOnUse">
<stop offset="0.295" stop-color="#E73959"/>
<stop offset="0.384" stop-color="#E73D58"/>
<stop offset="0.477" stop-color="#E74955"/>
<stop offset="0.571" stop-color="#E95E51"/>
<stop offset="0.666" stop-color="#EA7B4B"/>
<stop offset="0.761" stop-color="#EDA044"/>
<stop offset="0.857" stop-color="#EFCE3B"/>
<stop offset="0.868" stop-color="#F0D43A"/>
</linearGradient>
</defs>
</svg>
