<svg width="147" height="36" viewBox="0 0 147 36" fill="none" xmlns="http://www.w3.org/2000/svg">
<path d="M22.1547 8.30737C17.5668 8.30737 8.37669 4.58815 8.37669 0H8.30875C8.30875 3.67214 9.76746 7.19388 12.364 9.79052C14.9606 12.3872 18.4822 13.846 22.1544 13.8461C24.3577 13.8461 26.4707 14.7214 28.0288 16.2794C29.5868 17.8373 30.4621 19.9504 30.4621 22.1537C30.4626 24.357 29.5877 26.4704 28.03 28.0286C26.4723 29.587 24.3594 30.4626 22.1561 30.4631C19.9527 30.4635 17.8394 29.5886 16.2811 28.0309C14.7228 26.4732 13.8471 24.3602 13.8467 22.157C13.8466 20.3386 13.4884 18.5381 12.7925 16.8583C12.0966 15.1784 11.0767 13.652 9.79092 12.3663C8.50513 11.0806 6.97871 10.0607 5.29877 9.36496C3.61885 8.66919 1.81831 8.31111 0 8.31118V8.37857C4.58729 8.37857 8.30652 17.5647 8.30824 22.1535H8.30737C8.30735 24.8921 9.11936 27.5691 10.6407 29.8461C12.1621 32.1231 14.3246 33.8978 16.8546 34.9458C19.3846 35.994 22.1686 36.2683 24.8546 35.734C27.5404 35.1999 30.0076 33.8812 31.9441 31.945C33.8805 30.0086 35.1994 27.5416 35.7338 24.8556C36.2683 22.1698 35.9941 19.3858 34.9463 16.8557C33.8985 14.3256 32.124 12.163 29.8471 10.6414C27.5701 9.11983 24.8932 8.30758 22.1547 8.30737Z" fill="url(#paint0_linear_65_291)"/>
<path d="M49.2642 25V10.4545H59.0653V12.9901H52.3395V16.456H58.5611V18.9915H52.3395V22.4645H59.0938V25H49.2642ZM64.5643 25.206C63.8683 25.206 63.248 25.0852 62.7035 24.8438C62.159 24.5975 61.7281 24.2353 61.4109 23.7571C61.0984 23.2741 60.9421 22.6728 60.9421 21.9531C60.9421 21.3471 61.0534 20.8381 61.2759 20.4261C61.4985 20.0142 61.8015 19.6828 62.185 19.4318C62.5685 19.1809 63.0041 18.9915 63.4918 18.8636C63.9843 18.7358 64.5004 18.6458 65.0401 18.5938C65.6746 18.5275 66.186 18.4659 66.5742 18.4091C66.9625 18.3475 67.2442 18.2576 67.4194 18.1392C67.5946 18.0208 67.6822 17.8456 67.6822 17.6136V17.571C67.6822 17.1212 67.5401 16.7732 67.256 16.527C66.9767 16.2808 66.579 16.1577 66.0629 16.1577C65.5183 16.1577 65.0851 16.2784 64.7631 16.5199C64.4412 16.7566 64.2281 17.0549 64.1239 17.4148L61.3256 17.1875C61.4677 16.5246 61.747 15.9517 62.1637 15.4688C62.5804 14.9811 63.1178 14.607 63.7759 14.3466C64.4388 14.0814 65.2058 13.9489 66.0771 13.9489C66.6831 13.9489 67.2631 14.0199 67.8171 14.1619C68.3758 14.304 68.8706 14.5241 69.3015 14.8224C69.7371 15.1207 70.0804 15.5043 70.3313 15.973C70.5823 16.437 70.7077 16.9934 70.7077 17.642V25H67.8384V23.4872H67.7532C67.578 23.8281 67.3436 24.1288 67.0501 24.3892C66.7565 24.6449 66.4038 24.8461 65.9918 24.9929C65.5799 25.1349 65.104 25.206 64.5643 25.206ZM65.4308 23.1179C65.8758 23.1179 66.2688 23.0303 66.6097 22.8551C66.9506 22.6752 67.2182 22.4337 67.4123 22.1307C67.6064 21.8277 67.7035 21.4844 67.7035 21.1009V19.9432C67.6088 20.0047 67.4786 20.0616 67.3129 20.1136C67.1519 20.161 66.9696 20.206 66.766 20.2486C66.5624 20.2865 66.3588 20.322 66.1552 20.3551C65.9516 20.3835 65.7669 20.4096 65.6012 20.4332C65.2461 20.4853 64.936 20.5682 64.6708 20.6818C64.4057 20.7955 64.1997 20.9493 64.0529 21.1435C63.9061 21.3329 63.8327 21.5696 63.8327 21.8537C63.8327 22.2656 63.9819 22.5805 64.2802 22.7983C64.5832 23.0114 64.9667 23.1179 65.4308 23.1179ZM82.1317 17.2017L79.3619 17.3722C79.3145 17.1354 79.2127 16.9223 79.0565 16.733C78.9002 16.5388 78.6942 16.3849 78.4386 16.2713C78.1876 16.1529 77.887 16.0938 77.5366 16.0938C77.0678 16.0938 76.6725 16.1932 76.3505 16.392C76.0285 16.5862 75.8675 16.8466 75.8675 17.1733C75.8675 17.4337 75.9717 17.6539 76.18 17.8338C76.3884 18.0137 76.7459 18.1581 77.2525 18.267L79.2269 18.6648C80.2875 18.8826 81.0782 19.233 81.5991 19.7159C82.1199 20.1989 82.3803 20.8333 82.3803 21.6193C82.3803 22.3343 82.1696 22.9616 81.7482 23.5014C81.3316 24.0412 80.7586 24.4626 80.0295 24.7656C79.305 25.0639 78.4693 25.2131 77.5224 25.2131C76.0782 25.2131 74.9277 24.9124 74.0707 24.3111C73.2184 23.705 72.7189 22.8812 72.5721 21.8395L75.5479 21.6832C75.6379 22.1236 75.8557 22.4598 76.2013 22.6918C76.547 22.919 76.9897 23.0327 77.5295 23.0327C78.0598 23.0327 78.4859 22.9309 78.8079 22.7273C79.1346 22.5189 79.3003 22.2514 79.305 21.9247C79.3003 21.6501 79.1843 21.4252 78.957 21.25C78.7298 21.0701 78.3794 20.9328 77.9059 20.8381L76.0167 20.4616C74.9513 20.2486 74.1583 19.8793 73.6374 19.3537C73.1213 18.8281 72.8633 18.1581 72.8633 17.3438C72.8633 16.643 73.0527 16.0393 73.4315 15.5327C73.815 15.026 74.3524 14.6354 75.0437 14.3608C75.7397 14.0862 76.5541 13.9489 77.4869 13.9489C78.8647 13.9489 79.949 14.2401 80.7397 14.8224C81.5352 15.4048 81.9992 16.1979 82.1317 17.2017ZM86.1534 29.0909C85.7699 29.0909 85.41 29.0601 85.0739 28.9986C84.7424 28.9418 84.4678 28.8684 84.25 28.7784L84.9318 26.5199C85.2869 26.6288 85.6065 26.688 85.8906 26.6974C86.1795 26.7069 86.428 26.6406 86.6364 26.4986C86.8494 26.3565 87.0223 26.1151 87.1548 25.7741L87.3324 25.3125L83.419 14.0909H86.6009L88.8594 22.1023H88.973L91.2528 14.0909H94.456L90.2159 26.179C90.0123 26.7661 89.7353 27.2775 89.3849 27.7131C89.0393 28.1534 88.6013 28.492 88.071 28.7287C87.5407 28.9702 86.9015 29.0909 86.1534 29.0909ZM100.69 10.4545H104.483L108.488 20.2273H108.659L112.664 10.4545H116.457V25H113.474V15.5327H113.353L109.589 24.929H107.558L103.794 15.4972H103.673V25H100.69V10.4545ZM123.906 25.2131C122.783 25.2131 121.817 24.9858 121.008 24.5312C120.203 24.072 119.583 23.4233 119.147 22.5852C118.711 21.7424 118.494 20.7457 118.494 19.5952C118.494 18.473 118.711 17.4882 119.147 16.6406C119.583 15.7931 120.196 15.1326 120.987 14.6591C121.782 14.1856 122.715 13.9489 123.785 13.9489C124.504 13.9489 125.174 14.0649 125.795 14.2969C126.42 14.5241 126.964 14.8674 127.428 15.3267C127.897 15.786 128.262 16.3636 128.522 17.0597C128.782 17.7509 128.913 18.5606 128.913 19.4886V20.3196H119.701V18.4446H126.065C126.065 18.009 125.97 17.6231 125.781 17.2869C125.591 16.9508 125.328 16.688 124.992 16.4986C124.661 16.3045 124.275 16.2074 123.835 16.2074C123.375 16.2074 122.968 16.3139 122.613 16.527C122.263 16.7353 121.988 17.017 121.789 17.3722C121.59 17.7225 121.488 18.1132 121.484 18.544V20.3267C121.484 20.8665 121.583 21.3329 121.782 21.7259C121.986 22.1188 122.272 22.4219 122.641 22.6349C123.011 22.848 123.449 22.9545 123.955 22.9545C124.291 22.9545 124.599 22.9072 124.879 22.8125C125.158 22.7178 125.397 22.5758 125.596 22.3864C125.795 22.197 125.946 21.965 126.05 21.6903L128.849 21.875C128.707 22.5473 128.415 23.1345 127.975 23.6364C127.54 24.1335 126.976 24.5218 126.285 24.8011C125.598 25.0758 124.805 25.2131 123.906 25.2131ZM133.998 25.206C133.302 25.206 132.682 25.0852 132.137 24.8438C131.593 24.5975 131.162 24.2353 130.844 23.7571C130.532 23.2741 130.376 22.6728 130.376 21.9531C130.376 21.3471 130.487 20.8381 130.71 20.4261C130.932 20.0142 131.235 19.6828 131.619 19.4318C132.002 19.1809 132.438 18.9915 132.925 18.8636C133.418 18.7358 133.934 18.6458 134.474 18.5938C135.108 18.5275 135.62 18.4659 136.008 18.4091C136.396 18.3475 136.678 18.2576 136.853 18.1392C137.028 18.0208 137.116 17.8456 137.116 17.6136V17.571C137.116 17.1212 136.974 16.7732 136.69 16.527C136.41 16.2808 136.013 16.1577 135.496 16.1577C134.952 16.1577 134.519 16.2784 134.197 16.5199C133.875 16.7566 133.662 17.0549 133.558 17.4148L130.759 17.1875C130.901 16.5246 131.181 15.9517 131.597 15.4688C132.014 14.9811 132.551 14.607 133.21 14.3466C133.872 14.0814 134.639 13.9489 135.511 13.9489C136.117 13.9489 136.697 14.0199 137.251 14.1619C137.809 14.304 138.304 14.5241 138.735 14.8224C139.171 15.1207 139.514 15.5043 139.765 15.973C140.016 16.437 140.141 16.9934 140.141 17.642V25H137.272V23.4872H137.187C137.012 23.8281 136.777 24.1288 136.484 24.3892C136.19 24.6449 135.837 24.8461 135.425 24.9929C135.013 25.1349 134.538 25.206 133.998 25.206ZM134.864 23.1179C135.309 23.1179 135.702 23.0303 136.043 22.8551C136.384 22.6752 136.652 22.4337 136.846 22.1307C137.04 21.8277 137.137 21.4844 137.137 21.1009V19.9432C137.042 20.0047 136.912 20.0616 136.746 20.1136C136.585 20.161 136.403 20.206 136.2 20.2486C135.996 20.2865 135.792 20.322 135.589 20.3551C135.385 20.3835 135.201 20.4096 135.035 20.4332C134.68 20.4853 134.37 20.5682 134.104 20.6818C133.839 20.7955 133.633 20.9493 133.487 21.1435C133.34 21.3329 133.266 21.5696 133.266 21.8537C133.266 22.2656 133.415 22.5805 133.714 22.7983C134.017 23.0114 134.4 23.1179 134.864 23.1179ZM145.514 10.4545V25H142.489V10.4545H145.514Z" fill="#1C1C1C"/>
<defs>
<linearGradient id="paint0_linear_65_291" x1="28.692" y1="31.14" x2="7.77601" y2="2.412" gradientUnits="userSpaceOnUse">
<stop offset="0.295" stop-color="#E73959"/>
<stop offset="0.384" stop-color="#E73D58"/>
<stop offset="0.477" stop-color="#E74955"/>
<stop offset="0.571" stop-color="#E95E51"/>
<stop offset="0.666" stop-color="#EA7B4B"/>
<stop offset="0.761" stop-color="#EDA044"/>
<stop offset="0.857" stop-color="#EFCE3B"/>
<stop offset="0.868" stop-color="#F0D43A"/>
</linearGradient>
</defs>
</svg>
